Poster: 
http://www.shotpix.com/images/09562321646468297922.jpg

Info:

Format : MPEG-4
Format profile : Base Media
Codec ID : isom
File size : 717 MiB
Duration : 2h 24mn
Overall bit rate : 694 Kbps
Encoded date : UTC 2013-01-02 18:33:00
Tagged date : UTC 2013-01-02 18:33:00

Video
ID : 1
Format : AVC
Format/Info : Advanced Video Codec
Format profile : High@L2.1
Format settings, CABAC : Yes
Format settings, ReFrames : 4 frames
Codec ID : avc1
Codec ID/Info : Advanced Video Coding
Duration : 2h 24mn
Bit rate : 563 Kbps
Maximum bit rate : 1 875 Kbps
Width : 608 pixels
Height : 256 pixels
Display aspect ratio : 2.40:1
Frame rate mode : Constant
Frame rate : 29.970 fps
Color space : YUV
Chroma subsampling : 4:2:0
Bit depth : 8 bits
Scan type : Progressive
Bits/(Pixel*Frame) : 0.121
Stream size : 581 MiB (81%)
Writing library : x264 core 129 r2230 1cffe9f
Encoded date : UTC 2013-01-02 18:12:56
Tagged date : UTC 2013-01-02 18:33:26

Audio
ID : 2
Format : AC-3
Format/Info : Audio Coding 3
Mode extension : CM (complete main)
Format settings, Endianness : Big
Codec ID : ac-3
Duration : 2h 24mn
Bit rate mode : Constant
Bit rate : 128 Kbps
Channel(s) : 2 channels
Channel positions : Front: L R
Sampling rate : 48.0 KHz
Bit depth : 16 bits
Compression mode : Lossy
Delay relative to video : 67ms
Stream size : 132 MiB (18%)
Encoded date : UTC 2013-01-02 18:33:15
Tagged date : UTC 2013-01-02 18:33:26

Screens: 
http://www.shotpix.com/images/35722573774730741630.png 
http://www.shotpix.com/images/86776764248089970634.png 
http://www.shotpix.com/images/40770061192888906311.png 
http://www.shotpix.com/images/67629238747630682989.png 
http://www.shotpix.com/images/50943802491810521406.png 
http://www.shotpix.com/images/12603841748232605733.png 
http://www.shotpix.com/images/14110457569352186918.png




